<svg xmlns="http://www.w3.org/2000/svg" viewBox="0 0 512 512" role="img" aria-label="OPHANIM wheel lattice">
  <rect width="512" height="512" rx="96" fill="#020707"/>
  <g fill="none" stroke-linecap="round" stroke-linejoin="round">
    <circle cx="256" cy="256" r="184" stroke="#7CFFCB" stroke-width="10"/>
    <circle cx="256" cy="256" r="128" stroke="#8976FF" stroke-width="5" opacity=".75"/>
    <circle cx="256" cy="256" r="72" stroke="#7CFFCB" stroke-width="3" opacity=".55"/>
    <path d="M256 72v368M72 256h368M126 126l260 260M386 126 126 386" stroke="#7CFFCB" stroke-width="3" opacity=".38"/>
    <path d="M158 256c38-56 158-56 196 0-38 56-158 56-196 0Z" stroke="#F7FFFC" stroke-width="8"/>
  </g>
  <g fill="#020707" stroke="#7CFFCB" stroke-width="6">
    <circle cx="256" cy="72" r="16"/>
    <circle cx="256" cy="440" r="16"/>
    <circle cx="72" cy="256" r="16"/>
    <circle cx="440" cy="256" r="16"/>
    <circle cx="126" cy="126" r="14"/>
    <circle cx="386" cy="126" r="14"/>
    <circle cx="126" cy="386" r="14"/>
    <circle cx="386" cy="386" r="14"/>
  </g>
  <circle cx="256" cy="256" r="26" fill="#7CFFCB"/>
  <circle cx="256" cy="256" r="10" fill="#020707"/>
  <text x="256" y="486" text-anchor="middle" fill="#7CFFCB" font-family="IBM Plex Mono, monospace" font-size="30" letter-spacing="8">OPHANIM</text>
</svg>
